<svg width="1200" height="400" viewBox="0 0 1200 400" fill="none" xmlns="http://www.w3.org/2000/svg">
<path d="M538.495 141.78C554.442 158.027 583.267 188.196 585.829 192.298C588.997 197.371 588.285 201.731 586.734 204.749L586.719 204.78C584.491 209.115 583.889 210.287 581.495 213.26C578.954 216.417 573.348 221.561 573.348 221.561C573.348 221.561 569.42 225.767 565.653 223.406C559.769 219.716 555.435 213.918 550.264 208.649C541.772 199.997 505 162.994 501.186 151.716C500.032 148.302 500.332 141.681 505.453 137.63C506.581 136.737 510.198 134.943 511.597 134.653C515.027 133.94 516.407 133.679 519.937 133.94C523.533 134.207 525.773 134.354 529.25 135.785C532.611 137.169 534.421 137.63 538.495 141.78Z" fill="#191919"/>
<path d="M579.685 228.017C608.298 196.869 622.233 176.367 649.391 145.008C658.27 134.755 670.621 131.615 682.886 137.169C691.033 140.858 690.142 153.756 682.886 161.149C674.286 169.911 632.597 210.054 603.222 243.236C582.401 266.755 569.727 284.279 544.379 311.026C533.484 322.524 519.937 326.706 506.811 321.172C505.138 320.467 492.326 317.944 506.811 300.881C532.145 271.036 554.266 255.687 579.685 228.017Z" fill="#191919"/>
<path d="M653.231 317.28C635.983 302.477 607.555 271.78 604.992 267.677C602.43 263.575 602.317 257.532 604.992 254.311C608.113 250.554 608.065 250.827 610.464 247.847C613.005 244.69 617.706 240.469 617.706 240.469C617.706 240.469 622.087 235.138 625.854 237.499C631.738 241.188 635.619 246.728 640.79 251.998C649.283 260.65 679.082 289.922 686.054 300.881C701.896 325.784 662.064 324.861 653.231 317.28Z" fill="#191919"/>
<path d="M538.495 141.78C554.442 158.027 583.267 188.196 585.829 192.298C588.997 197.371 588.285 201.731 586.734 204.749L586.719 204.78C584.491 209.115 583.889 210.287 581.495 213.26C578.954 216.417 573.348 221.561 573.348 221.561C573.348 221.561 569.42 225.767 565.653 223.406C559.769 219.716 555.435 213.918 550.264 208.649C541.772 199.997 505 162.994 501.186 151.716C500.032 148.302 500.332 141.681 505.453 137.63C506.581 136.737 510.198 134.943 511.597 134.653C515.027 133.94 516.407 133.679 519.937 133.94C523.533 134.207 525.773 134.354 529.25 135.785C532.611 137.169 534.421 137.63 538.495 141.78Z" stroke="#191919" stroke-width="1.35345"/>
<path d="M579.685 228.017C608.298 196.869 622.233 176.367 649.391 145.008C658.27 134.755 670.621 131.615 682.886 137.169C691.033 140.858 690.142 153.756 682.886 161.149C674.286 169.911 632.597 210.054 603.222 243.236C582.401 266.755 569.727 284.279 544.379 311.026C533.484 322.524 519.937 326.706 506.811 321.172C505.138 320.467 492.326 317.944 506.811 300.881C532.145 271.036 554.266 255.687 579.685 228.017Z" stroke="#191919" stroke-width="1.35345"/>
<path d="M653.231 317.28C635.983 302.477 607.555 271.78 604.992 267.677C602.43 263.575 602.317 257.532 604.992 254.311C608.113 250.554 608.065 250.827 610.464 247.847C613.005 244.69 617.706 240.469 617.706 240.469C617.706 240.469 622.087 235.138 625.854 237.499C631.738 241.188 635.619 246.728 640.79 251.998C649.283 260.65 679.082 289.922 686.054 300.881C701.896 325.784 662.064 324.861 653.231 317.28Z" stroke="#191919" stroke-width="1.35345"/>
<mask id="path-2-outside-1_15_6" maskUnits="userSpaceOnUse" x="65" y="119" width="411" height="204" fill="black">
<rect fill="white" x="65" y="119" width="411" height="204"/>
<path d="M153.531 321.331C136.387 321.331 121.319 317.361 108.326 309.421C95.3328 301.3 85.227 289.751 78.0086 274.772C70.7902 259.794 67.181 241.929 67.181 221.176C67.181 200.423 70.7902 182.557 78.0086 167.579C85.227 152.421 95.3328 140.781 108.326 132.66C121.319 124.54 136.387 120.479 153.531 120.479C176.81 120.479 194.856 126.344 207.669 138.074C220.482 149.804 228.873 165.775 232.843 185.986L208.21 187.61C205.503 173.895 199.729 163.068 190.886 155.128C182.044 147.187 169.592 143.217 153.531 143.217C141.26 143.217 130.432 146.375 121.048 152.691C111.845 158.827 104.626 167.76 99.3931 179.49C94.1598 191.039 91.5431 204.934 91.5431 221.176C91.5431 237.417 94.1598 251.313 99.3931 262.862C104.626 274.411 111.845 283.254 121.048 289.39C130.432 295.525 141.26 298.593 153.531 298.593C170.314 298.593 183.307 294.262 192.51 285.6C201.714 276.757 207.489 264.847 209.834 249.869L234.467 251.493C232.121 265.389 227.52 277.57 220.662 288.036C213.805 298.503 204.691 306.714 193.322 312.669C182.134 318.444 168.87 321.331 153.531 321.331ZM264.869 317V173.534H284.9L285.983 209.807L283.817 208.995C285.622 196.724 289.502 187.791 295.457 182.197C301.593 176.422 309.713 173.534 319.819 173.534H333.895V195.19H320.09C312.871 195.19 306.826 196.543 301.954 199.25C297.262 201.776 293.652 205.656 291.126 210.89C288.78 215.943 287.607 222.439 287.607 230.379V317H264.869ZM409.248 320.248C394.992 320.248 383.533 315.466 374.871 305.902C366.389 296.157 362.148 282.803 362.148 265.84V173.534H384.886V259.614C384.886 273.509 387.322 283.795 392.195 290.472C397.248 296.969 404.917 300.217 415.203 300.217C426.572 300.217 435.505 296.608 442.002 289.39C448.498 281.991 451.746 271.885 451.746 259.072V173.534H474.484V317H452.829V281.54L456.348 283.434C453.461 295.164 447.957 304.278 439.836 310.774C431.715 317.09 421.519 320.248 409.248 320.248Z"/>
</mask>
<path d="M153.531 321.331C136.387 321.331 121.319 317.361 108.326 309.421C95.3328 301.3 85.227 289.751 78.0086 274.772C70.7902 259.794 67.181 241.929 67.181 221.176C67.181 200.423 70.7902 182.557 78.0086 167.579C85.227 152.421 95.3328 140.781 108.326 132.66C121.319 124.54 136.387 120.479 153.531 120.479C176.81 120.479 194.856 126.344 207.669 138.074C220.482 149.804 228.873 165.775 232.843 185.986L208.21 187.61C205.503 173.895 199.729 163.068 190.886 155.128C182.044 147.187 169.592 143.217 153.531 143.217C141.26 143.217 130.432 146.375 121.048 152.691C111.845 158.827 104.626 167.76 99.3931 179.49C94.1598 191.039 91.5431 204.934 91.5431 221.176C91.5431 237.417 94.1598 251.313 99.3931 262.862C104.626 274.411 111.845 283.254 121.048 289.39C130.432 295.525 141.26 298.593 153.531 298.593C170.314 298.593 183.307 294.262 192.51 285.6C201.714 276.757 207.489 264.847 209.834 249.869L234.467 251.493C232.121 265.389 227.52 277.57 220.662 288.036C213.805 298.503 204.691 306.714 193.322 312.669C182.134 318.444 168.87 321.331 153.531 321.331ZM264.869 317V173.534H284.9L285.983 209.807L283.817 208.995C285.622 196.724 289.502 187.791 295.457 182.197C301.593 176.422 309.713 173.534 319.819 173.534H333.895V195.19H320.09C312.871 195.19 306.826 196.543 301.954 199.25C297.262 201.776 293.652 205.656 291.126 210.89C288.78 215.943 287.607 222.439 287.607 230.379V317H264.869ZM409.248 320.248C394.992 320.248 383.533 315.466 374.871 305.902C366.389 296.157 362.148 282.803 362.148 265.84V173.534H384.886V259.614C384.886 273.509 387.322 283.795 392.195 290.472C397.248 296.969 404.917 300.217 415.203 300.217C426.572 300.217 435.505 296.608 442.002 289.39C448.498 281.991 451.746 271.885 451.746 259.072V173.534H474.484V317H452.829V281.54L456.348 283.434C453.461 295.164 447.957 304.278 439.836 310.774C431.715 317.09 421.519 320.248 409.248 320.248Z" fill="#191919"/>
<path d="M108.326 309.421L107.609 310.568L107.62 310.576L108.326 309.421ZM78.0086 274.772L76.7894 275.36V275.36L78.0086 274.772ZM78.0086 167.579L79.2279 168.167L79.2306 168.161L78.0086 167.579ZM108.326 132.66L107.609 131.513H107.609L108.326 132.66ZM207.669 138.074L206.755 139.072V139.072L207.669 138.074ZM232.843 185.986L232.932 187.337L234.468 187.235L234.171 185.725L232.843 185.986ZM208.21 187.61L206.883 187.872L207.113 189.039L208.299 188.961L208.21 187.61ZM190.886 155.128L191.79 154.121V154.121L190.886 155.128ZM121.048 152.691L121.799 153.818L121.804 153.814L121.048 152.691ZM99.3931 179.49L100.626 180.048L100.629 180.041L99.3931 179.49ZM121.048 289.39L120.297 290.516L120.308 290.522L121.048 289.39ZM192.51 285.6L193.438 286.586L193.448 286.576L192.51 285.6ZM209.835 249.869L209.924 248.518L208.689 248.437L208.497 249.66L209.835 249.869ZM234.467 251.493L235.802 251.718L236.051 250.241L234.556 250.143L234.467 251.493ZM220.662 288.036L221.794 288.778V288.778L220.662 288.036ZM193.322 312.669L193.943 313.872L193.95 313.868L193.322 312.669ZM153.531 321.331V319.978C136.604 319.978 121.786 316.06 109.032 308.266L108.326 309.421L107.62 310.576C120.852 318.661 136.17 322.684 153.531 322.684V321.331ZM108.326 309.421L109.043 308.273C96.2854 300.299 86.3451 288.953 79.2279 274.185L78.0086 274.772L76.7894 275.36C84.109 290.548 94.3801 302.301 107.609 310.568L108.326 309.421ZM78.0086 274.772L79.2279 274.185C72.1169 259.43 68.5345 241.775 68.5345 221.176H67.181H65.8276C65.8276 242.083 69.4635 260.159 76.7894 275.36L78.0086 274.772ZM67.181 221.176H68.5345C68.5345 200.577 72.1169 182.922 79.2279 168.167L78.0086 167.579L76.7894 166.992C69.4635 182.193 65.8276 200.269 65.8276 221.176H67.181ZM78.0086 167.579L79.2306 168.161C86.3491 153.212 96.2895 141.779 109.043 133.808L108.326 132.66L107.609 131.513C94.376 139.783 84.1049 151.629 76.7866 166.997L78.0086 167.579ZM108.326 132.66L109.043 133.808C121.796 125.837 136.61 121.833 153.531 121.833V120.479V119.126C136.165 119.126 120.842 123.242 107.609 131.513L108.326 132.66ZM153.531 120.479V121.833C176.589 121.833 194.267 127.639 206.755 139.072L207.669 138.074L208.583 137.076C195.446 125.049 177.032 119.126 153.531 119.126V120.479ZM207.669 138.074L206.755 139.072C219.317 150.573 227.59 166.265 231.515 186.247L232.843 185.986L234.171 185.725C230.156 165.284 221.646 149.035 208.583 137.076L207.669 138.074ZM232.843 185.986L232.754 184.636L208.121 186.26L208.21 187.61L208.299 188.961L232.932 187.337L232.843 185.986ZM208.21 187.61L209.538 187.348C206.785 173.398 200.888 162.29 191.79 154.121L190.886 155.128L189.982 156.135C198.57 163.846 204.222 174.393 206.883 187.872L208.21 187.61ZM190.886 155.128L191.79 154.121C182.624 145.889 169.807 141.864 153.531 141.864V143.217V144.571C169.377 144.571 181.464 148.486 189.982 156.135L190.886 155.128ZM153.531 143.217V141.864C141.014 141.864 129.919 145.089 120.293 151.569L121.048 152.691L121.804 153.814C130.946 147.661 141.505 144.571 153.531 144.571V143.217ZM121.048 152.691L120.298 151.565C110.849 157.864 103.478 167.013 98.1571 178.938L99.3931 179.49L100.629 180.041C105.775 168.506 112.841 159.79 121.799 153.817L121.048 152.691ZM99.3931 179.49L98.1603 178.931C92.8284 190.698 90.1897 204.794 90.1897 221.176H91.5431H92.8966C92.8966 205.075 95.4911 191.38 100.626 180.048L99.3931 179.49ZM91.5431 221.176H90.1897C90.1897 237.558 92.8284 251.654 98.1603 263.421L99.3931 262.862L100.626 262.303C95.4911 250.971 92.8966 237.277 92.8966 221.176H91.5431ZM99.3931 262.862L98.1603 263.421C103.482 275.166 110.854 284.22 120.298 290.516L121.048 289.39L121.799 288.264C112.836 282.288 105.77 273.657 100.626 262.303L99.3931 262.862ZM121.048 289.39L120.308 290.522C129.932 296.816 141.023 299.947 153.531 299.947V298.593V297.24C141.497 297.24 130.932 294.235 121.789 288.257L121.048 289.39ZM153.531 298.593V299.947C170.543 299.947 183.91 295.553 193.438 286.586L192.51 285.6L191.583 284.614C182.704 292.971 170.085 297.24 153.531 297.24V298.593ZM192.51 285.6L193.448 286.576C202.903 277.492 208.789 265.292 211.172 250.078L209.835 249.869L208.497 249.66C206.188 264.402 200.525 276.023 191.573 284.624L192.51 285.6ZM209.835 249.869L209.745 251.219L234.378 252.844L234.467 251.493L234.556 250.143L209.924 248.518L209.835 249.869ZM234.467 251.493L233.133 251.268C230.814 265.002 226.273 277.003 219.53 287.294L220.662 288.036L221.794 288.778C228.766 278.136 233.429 265.775 235.802 251.718L234.467 251.493ZM220.662 288.036L219.53 287.294C212.802 297.563 203.865 305.619 192.694 311.47L193.322 312.669L193.95 313.868C205.518 307.809 214.807 299.443 221.794 288.778L220.662 288.036ZM193.322 312.669L192.702 311.466C181.743 317.123 168.701 319.978 153.531 319.978V321.331V322.684C169.04 322.684 182.525 319.765 193.943 313.872L193.322 312.669ZM264.869 317H263.516V318.353H264.869V317ZM264.869 173.534V172.181H263.516V173.534H264.869ZM284.9 173.534L286.253 173.494L286.214 172.181H284.9V173.534ZM285.983 209.807L285.508 211.074L287.396 211.782L287.336 209.767L285.983 209.807ZM283.817 208.995L282.478 208.798L282.319 209.879L283.342 210.262L283.817 208.995ZM295.457 182.197L296.384 183.183L296.385 183.182L295.457 182.197ZM333.895 173.534H335.248V172.181H333.895V173.534ZM333.895 195.19V196.543H335.248V195.19H333.895ZM301.954 199.25L302.595 200.442L302.603 200.437L302.611 200.433L301.954 199.25ZM291.126 210.89L289.907 210.301L289.903 210.31L289.898 210.32L291.126 210.89ZM287.607 317V318.353H288.96V317H287.607ZM264.869 317H266.223V173.534H264.869H263.516V317H264.869ZM264.869 173.534V174.888H284.9V173.534V172.181H264.869V173.534ZM284.9 173.534L283.547 173.575L284.63 209.847L285.983 209.807L287.336 209.767L286.253 173.494L284.9 173.534ZM285.983 209.807L286.458 208.54L284.293 207.728L283.817 208.995L283.342 210.262L285.508 211.074L285.983 209.807ZM283.817 208.995L285.156 209.192C286.938 197.074 290.74 188.484 296.384 183.183L295.457 182.197L294.53 181.21C288.263 187.097 284.305 196.374 282.478 208.798L283.817 208.995ZM295.457 182.197L296.385 183.182C302.221 177.689 309.985 174.888 319.819 174.888V173.534V172.181C309.441 172.181 300.965 175.154 294.529 181.211L295.457 182.197ZM319.819 173.534V174.888H333.895V173.534V172.181H319.819V173.534ZM333.895 173.534H332.542V195.19H333.895H335.248V173.534H333.895ZM333.895 195.19V193.836H320.09V195.19V196.543H333.895V195.19ZM320.09 195.19V193.836C312.707 193.836 306.421 195.22 301.296 198.067L301.954 199.25L302.611 200.433C307.231 197.866 313.035 196.543 320.09 196.543V195.19ZM301.954 199.25L301.312 198.058C296.346 200.732 292.546 204.836 289.907 210.301L291.126 210.89L292.345 211.478C294.759 206.477 298.177 202.82 302.595 200.442L301.954 199.25ZM291.126 210.89L289.898 210.32C287.442 215.61 286.254 222.32 286.254 230.379H287.607H288.96C288.96 222.558 290.118 216.275 292.354 211.46L291.126 210.89ZM287.607 230.379H286.254V317H287.607H288.96V230.379H287.607ZM287.607 317V315.647H264.869V317V318.353H287.607V317ZM374.871 305.902L373.85 306.79L373.858 306.8L373.867 306.81L374.871 305.902ZM362.148 173.534V172.181H360.795V173.534H362.148ZM384.886 173.534H386.24V172.181H384.886V173.534ZM392.195 290.472L391.101 291.27L391.114 291.287L391.126 291.303L392.195 290.472ZM442.002 289.39L443.008 290.295L443.013 290.289L443.019 290.283L442.002 289.39ZM451.746 173.534V172.181H450.393V173.534H451.746ZM474.484 173.534H475.838V172.181H474.484V173.534ZM474.484 317V318.353H475.838V317H474.484ZM452.829 317H451.476V318.353H452.829V317ZM452.829 281.54L453.471 280.348L451.476 279.274V281.54H452.829ZM456.348 283.434L457.662 283.758L457.913 282.74L456.99 282.243L456.348 283.434ZM439.836 310.774L440.667 311.842L440.674 311.837L440.682 311.831L439.836 310.774ZM409.248 320.248V318.895C395.329 318.895 384.251 314.243 375.874 304.993L374.871 305.902L373.867 306.81C382.815 316.689 394.654 321.602 409.248 321.602V320.248ZM374.871 305.902L375.892 305.013C367.684 295.583 363.502 282.58 363.502 265.84H362.148H360.795C360.795 283.025 365.094 296.731 373.85 306.79L374.871 305.902ZM362.148 265.84H363.502V173.534H362.148H360.795V265.84H362.148ZM362.148 173.534V174.888H384.886V173.534V172.181H362.148V173.534ZM384.886 173.534H383.533V259.614H384.886H386.24V173.534H384.886ZM384.886 259.614H383.533C383.533 273.619 385.979 284.251 391.101 291.27L392.195 290.472L393.288 289.675C388.665 283.34 386.24 273.399 386.24 259.614H384.886ZM392.195 290.472L391.126 291.303C396.499 298.211 404.614 301.571 415.203 301.571V300.217V298.864C405.22 298.864 397.996 295.727 393.263 289.641L392.195 290.472ZM415.203 300.217V301.571C426.884 301.571 436.21 297.848 443.008 290.295L442.002 289.39L440.996 288.484C434.8 295.368 426.26 298.864 415.203 298.864V300.217ZM442.002 289.39L443.019 290.283C449.791 282.57 453.1 272.112 453.1 259.072H451.746H450.393C450.393 271.658 447.206 281.411 440.985 288.497L442.002 289.39ZM451.746 259.072H453.1V173.534H451.746H450.393V259.072H451.746ZM451.746 173.534V174.888H474.484V173.534V172.181H451.746V173.534ZM474.484 173.534H473.131V317H474.484H475.838V173.534H474.484ZM474.484 317V315.647H452.829V317V318.353H474.484V317ZM452.829 317H454.183V281.54H452.829H451.476V317H452.829ZM452.829 281.54L452.188 282.731L455.707 284.626L456.348 283.434L456.99 282.243L453.471 280.348L452.829 281.54ZM456.348 283.434L455.034 283.111C452.206 294.6 446.842 303.436 438.991 309.717L439.836 310.774L440.682 311.831C449.071 305.119 454.716 295.729 457.662 283.758L456.348 283.434ZM439.836 310.774L439.005 309.706C431.165 315.803 421.279 318.895 409.248 318.895V320.248V321.602C421.76 321.602 432.265 318.377 440.667 311.842L439.836 310.774Z" fill="#191919" mask="url(#path-2-outside-1_15_6)"/>
<mask id="path-4-outside-2_15_6" maskUnits="userSpaceOnUse" x="712.738" y="123" width="388" height="196" fill="black">
<rect fill="white" x="712.738" y="123" width="388" height="196"/>
<path d="M714.642 317V124.81H747.125L808.571 291.555L869.747 124.81H902.23V317H878.95V168.121L824 317H792.871L737.921 168.121V317H714.642ZM946.737 317V124.81H1006.29C1035.88 124.81 1058.62 133.202 1074.5 149.984C1090.56 166.587 1098.59 190.317 1098.59 221.176C1098.59 251.854 1090.74 275.494 1075.04 292.097C1059.34 308.699 1036.97 317 1007.91 317H946.737ZM970.016 294.262H1006.29C1028.85 294.262 1045.81 288.217 1057.18 276.126C1068.55 263.855 1074.23 245.538 1074.23 221.176C1074.23 196.453 1068.55 178.046 1057.18 165.955C1045.81 153.684 1028.85 147.548 1006.29 147.548H970.016V294.262Z"/>
</mask>
<path d="M714.642 317V124.81H747.125L808.571 291.555L869.747 124.81H902.23V317H878.95V168.121L824 317H792.871L737.921 168.121V317H714.642ZM946.737 317V124.81H1006.29C1035.88 124.81 1058.62 133.202 1074.5 149.984C1090.56 166.587 1098.59 190.317 1098.59 221.176C1098.59 251.854 1090.74 275.494 1075.04 292.097C1059.34 308.699 1036.97 317 1007.91 317H946.737ZM970.016 294.262H1006.29C1028.85 294.262 1045.81 288.217 1057.18 276.126C1068.55 263.855 1074.23 245.538 1074.23 221.176C1074.23 196.453 1068.55 178.046 1057.18 165.955C1045.81 153.684 1028.85 147.548 1006.29 147.548H970.016V294.262Z" fill="#191919"/>
<path d="M714.642 317H713.288V318.353H714.642V317ZM714.642 124.81V123.457H713.288V124.81H714.642ZM747.125 124.81L748.395 124.342L748.068 123.457H747.125V124.81ZM808.571 291.555L807.301 292.023L808.574 295.477L809.842 292.021L808.571 291.555ZM869.747 124.81V123.457H868.802L868.476 124.344L869.747 124.81ZM902.23 124.81H903.583V123.457H902.23V124.81ZM902.23 317V318.353H903.583V317H902.23ZM878.951 317H877.597V318.353H878.951V317ZM878.951 168.121H880.304L877.681 167.652L878.951 168.121ZM824 317V318.353H824.944L825.27 317.469L824 317ZM792.871 317L791.601 317.469L791.928 318.353H792.871V317ZM737.921 168.121L739.191 167.652L736.568 168.121H737.921ZM737.921 317V318.353H739.275V317H737.921ZM714.642 317H715.995V124.81H714.642H713.288V317H714.642ZM714.642 124.81V126.164H747.125V124.81V123.457H714.642V124.81ZM747.125 124.81L745.855 125.278L807.301 292.023L808.571 291.555L809.841 291.087L748.395 124.342L747.125 124.81ZM808.571 291.555L809.842 292.021L871.018 125.277L869.747 124.81L868.476 124.344L807.301 291.089L808.571 291.555ZM869.747 124.81V126.164H902.23V124.81V123.457H869.747V124.81ZM902.23 124.81H900.876V317H902.23H903.583V124.81H902.23ZM902.23 317V315.647H878.951V317V318.353H902.23V317ZM878.951 317H880.304V168.121H878.951H877.597V317H878.951ZM878.951 168.121L877.681 167.652L822.731 316.531L824 317L825.27 317.469L880.22 168.589L878.951 168.121ZM824 317V315.647H792.871V317V318.353H824V317ZM792.871 317L794.141 316.531L739.191 167.652L737.921 168.121L736.651 168.589L791.601 317.469L792.871 317ZM737.921 168.121H736.568V317H737.921H739.275V168.121H737.921ZM737.921 317V315.647H714.642V317V318.353H737.921V317ZM946.737 317H945.384V318.353H946.737V317ZM946.737 124.81V123.457H945.384V124.81H946.737ZM1074.5 149.984L1073.52 150.915L1073.52 150.92L1073.53 150.926L1074.5 149.984ZM970.016 294.262H968.663V295.616H970.016V294.262ZM1057.18 276.126L1058.16 277.053L1058.17 277.046L1057.18 276.126ZM1057.18 165.955L1056.19 166.875L1056.19 166.882L1057.18 165.955ZM970.016 147.548V146.195H968.663V147.548H970.016ZM946.737 317H948.091V124.81H946.737H945.384V317H946.737ZM946.737 124.81V126.164H1006.29V124.81V123.457H946.737V124.81ZM1006.29 124.81V126.164C1035.62 126.164 1057.96 134.473 1073.52 150.915L1074.5 149.984L1075.49 149.054C1059.28 131.93 1036.15 123.457 1006.29 123.457V124.81ZM1074.5 149.984L1073.53 150.926C1089.27 167.2 1097.24 190.547 1097.24 221.176H1098.59H1099.95C1099.95 190.087 1091.85 165.974 1075.48 149.043L1074.5 149.984ZM1098.59 221.176H1097.24C1097.24 251.629 1089.45 274.892 1074.06 291.167L1075.04 292.097L1076.03 293.026C1092.04 276.097 1099.95 252.079 1099.95 221.176H1098.59ZM1075.04 292.097L1074.06 291.167C1058.68 307.43 1036.7 315.647 1007.91 315.647V317V318.353C1037.23 318.353 1060.01 309.968 1076.03 293.026L1075.04 292.097ZM1007.91 317V315.647H946.737V317V318.353H1007.91V317ZM970.016 294.262V295.616H1006.29V294.262V292.909H970.016V294.262ZM1006.29 294.262V295.616C1029.08 295.616 1046.46 289.503 1058.16 277.053L1057.18 276.126L1056.19 275.199C1045.16 286.931 1028.61 292.909 1006.29 292.909V294.262ZM1057.18 276.126L1058.17 277.046C1069.86 264.431 1075.59 245.725 1075.59 221.176H1074.23H1072.88C1072.88 245.351 1067.24 263.279 1056.19 275.206L1057.18 276.126ZM1074.23 221.176H1075.59C1075.59 196.274 1069.86 177.469 1058.16 165.028L1057.18 165.955L1056.19 166.882C1067.23 178.623 1072.88 196.632 1072.88 221.176H1074.23ZM1057.18 165.955L1058.17 165.035C1046.47 152.401 1029.09 146.195 1006.29 146.195V147.548V148.902C1028.61 148.902 1045.15 154.967 1056.19 166.875L1057.18 165.955ZM1006.29 147.548V146.195H970.016V147.548V148.902H1006.29V147.548ZM970.016 147.548H968.663V294.262H970.016H971.37V147.548H970.016Z" fill="#191919" mask="url(#path-4-outside-2_15_6)"/>
</svg>
