<svg width="512" height="512" viewBox="0 0 512 512" fill="none" xmlns="http://www.w3.org/2000/svg">
<path d="M134.209 71.819C168.665 106.24 230.946 170.152 236.483 178.843C243.329 189.59 241.789 198.828 238.439 205.222L238.405 205.286C233.591 214.471 232.29 216.954 227.119 223.252C221.628 229.941 209.515 240.838 209.515 240.838C209.515 240.838 201.027 249.749 192.889 244.746C180.175 236.93 170.812 224.646 159.637 213.482C141.288 195.153 61.8361 116.761 53.5954 92.8678C51.1012 85.6365 51.75 71.609 62.8141 63.0261C65.2509 61.1358 73.0665 57.3348 76.0895 56.7192C83.5 55.2102 86.4822 54.6562 94.1103 55.2102C101.88 55.7745 106.72 56.0865 114.232 59.1182C121.495 62.0491 125.407 63.0261 134.209 71.819Z" fill="#FAFAF7"/>
<path d="M223.207 254.516C285.033 188.528 315.14 145.093 373.82 78.658C393.007 56.9357 419.693 50.2836 446.193 62.0491C463.797 69.865 461.872 97.1902 446.193 112.853C427.611 131.415 337.535 216.46 274.064 286.757C229.075 336.583 201.691 373.709 146.923 430.374C123.381 454.731 94.1103 463.592 65.7481 451.868C62.1333 450.374 34.4519 445.029 65.7481 408.88C120.488 345.653 168.286 313.135 223.207 254.516Z" fill="#FAFAF7"/>
<path d="M382.119 443.623C344.851 412.261 283.425 347.228 277.889 338.537C272.353 329.846 272.108 317.043 277.889 310.22C284.633 302.261 284.528 302.84 289.712 296.526C295.203 289.838 305.36 280.895 305.36 280.895C305.36 280.895 314.825 269.6 322.964 274.603C335.678 282.419 344.063 294.156 355.238 305.319C373.587 323.649 437.975 385.663 453.039 408.88C487.269 461.638 401.204 459.684 382.119 443.623Z" fill="#FAFAF7"/>
<path d="M134.209 71.819C168.665 106.24 230.946 170.152 236.483 178.843C243.329 189.59 241.789 198.828 238.439 205.222L238.405 205.286C233.591 214.471 232.29 216.954 227.119 223.252C221.628 229.941 209.515 240.838 209.515 240.838C209.515 240.838 201.027 249.749 192.889 244.746C180.175 236.93 170.812 224.646 159.637 213.482C141.288 195.153 61.8361 116.761 53.5954 92.8678C51.1012 85.6365 51.75 71.609 62.8141 63.0261C65.2509 61.1358 73.0665 57.3348 76.0895 56.7192C83.5 55.2102 86.4822 54.6562 94.1103 55.2102C101.88 55.7745 106.72 56.0865 114.232 59.1182C121.495 62.0491 125.407 63.0261 134.209 71.819Z" stroke="#FAFAF7" stroke-width="0.395122"/>
<path d="M223.207 254.516C285.033 188.528 315.14 145.093 373.82 78.658C393.007 56.9357 419.693 50.2836 446.193 62.0491C463.797 69.865 461.872 97.1902 446.193 112.853C427.611 131.415 337.535 216.46 274.064 286.757C229.075 336.583 201.691 373.709 146.923 430.374C123.381 454.731 94.1103 463.592 65.7481 451.868C62.1333 450.374 34.4519 445.029 65.7481 408.88C120.488 345.653 168.286 313.135 223.207 254.516Z" stroke="#FAFAF7" stroke-width="0.395122"/>
<path d="M382.119 443.623C344.851 412.261 283.425 347.228 277.889 338.537C272.353 329.846 272.108 317.043 277.889 310.22C284.633 302.261 284.528 302.84 289.712 296.526C295.203 289.838 305.36 280.895 305.36 280.895C305.36 280.895 314.825 269.6 322.964 274.603C335.678 282.419 344.063 294.156 355.238 305.319C373.587 323.649 437.975 385.663 453.039 408.88C487.269 461.638 401.204 459.684 382.119 443.623Z" stroke="#FAFAF7" stroke-width="0.395122"/>
</svg>
