<svg width="1200" height="400" viewBox="0 0 1200 400" fill="none" xmlns="http://www.w3.org/2000/svg">
<path d="M538.495 142.78C554.442 159.027 583.266 189.196 585.829 193.298C588.997 198.371 588.285 202.731 586.734 205.749L586.718 205.78C584.491 210.115 583.889 211.287 581.495 214.26C578.954 217.417 573.348 222.561 573.348 222.561C573.348 222.561 569.42 226.767 565.653 224.406C559.769 220.716 555.435 214.918 550.264 209.649C541.771 200.997 505 163.994 501.186 152.716C500.032 149.302 500.332 142.681 505.453 138.63C506.581 137.737 510.198 135.943 511.597 135.653C515.026 134.94 516.407 134.679 519.937 134.94C523.533 135.207 525.773 135.354 529.25 136.785C532.611 138.169 534.421 138.63 538.495 142.78Z" fill="#CC785C"/>
<path d="M579.685 229.017C608.298 197.869 622.233 177.367 649.391 146.008C658.27 135.755 670.621 132.615 682.886 138.169C691.033 141.858 690.142 154.756 682.886 162.149C674.285 170.911 632.597 211.054 603.222 244.236C582.401 267.755 569.727 285.279 544.379 312.026C533.484 323.524 519.937 327.706 506.811 322.172C505.138 321.467 492.326 318.944 506.811 301.881C532.145 272.036 554.266 256.687 579.685 229.017Z" fill="#CC785C"/>
<path d="M653.231 318.28C635.983 303.477 607.555 272.78 604.992 268.677C602.43 264.575 602.317 258.532 604.992 255.311C608.113 251.554 608.065 251.827 610.464 248.847C613.005 245.69 617.706 241.469 617.706 241.469C617.706 241.469 622.087 236.138 625.854 238.499C631.738 242.188 635.619 247.728 640.79 252.998C649.282 261.65 679.082 290.922 686.054 301.881C701.896 326.784 662.064 325.861 653.231 318.28Z" fill="#CC785C"/>
<path d="M538.495 142.78C554.442 159.027 583.266 189.196 585.829 193.298C588.997 198.371 588.285 202.731 586.734 205.749L586.718 205.78C584.491 210.115 583.889 211.287 581.495 214.26C578.954 217.417 573.348 222.561 573.348 222.561C573.348 222.561 569.42 226.767 565.653 224.406C559.769 220.716 555.435 214.918 550.264 209.649C541.771 200.997 505 163.994 501.186 152.716C500.032 149.302 500.332 142.681 505.453 138.63C506.581 137.737 510.198 135.943 511.597 135.653C515.026 134.94 516.407 134.679 519.937 134.94C523.533 135.207 525.773 135.354 529.25 136.785C532.611 138.169 534.421 138.63 538.495 142.78Z" stroke="#CC785C" stroke-width="1.35345"/>
<path d="M579.685 229.017C608.298 197.869 622.233 177.367 649.391 146.008C658.27 135.755 670.621 132.615 682.886 138.169C691.033 141.858 690.142 154.756 682.886 162.149C674.285 170.911 632.597 211.054 603.222 244.236C582.401 267.755 569.727 285.279 544.379 312.026C533.484 323.524 519.937 327.706 506.811 322.172C505.138 321.467 492.326 318.944 506.811 301.881C532.145 272.036 554.266 256.687 579.685 229.017Z" stroke="#CC785C" stroke-width="1.35345"/>
<path d="M653.231 318.28C635.983 303.477 607.555 272.78 604.992 268.677C602.43 264.575 602.317 258.532 604.992 255.311C608.113 251.554 608.065 251.827 610.464 248.847C613.005 245.69 617.706 241.469 617.706 241.469C617.706 241.469 622.087 236.138 625.854 238.499C631.738 242.188 635.619 247.728 640.79 252.998C649.282 261.65 679.082 290.922 686.054 301.881C701.896 326.784 662.064 325.861 653.231 318.28Z" stroke="#CC785C" stroke-width="1.35345"/>
<path d="M153.531 321.331C136.387 321.331 121.319 317.361 108.326 309.421C95.3328 301.3 85.227 289.751 78.0086 274.772C70.7902 259.794 67.181 241.929 67.181 221.176C67.181 200.423 70.7902 182.557 78.0086 167.579C85.227 152.421 95.3328 140.781 108.326 132.66C121.319 124.54 136.387 120.479 153.531 120.479C176.81 120.479 194.856 126.344 207.669 138.074C220.482 149.804 228.873 165.775 232.843 185.986L208.21 187.61C205.503 173.895 199.729 163.068 190.886 155.128C182.044 147.187 169.592 143.217 153.531 143.217C141.26 143.217 130.432 146.375 121.048 152.691C111.845 158.827 104.626 167.76 99.3931 179.49C94.1598 191.039 91.5431 204.934 91.5431 221.176C91.5431 237.417 94.1598 251.313 99.3931 262.862C104.626 274.411 111.845 283.254 121.048 289.39C130.432 295.525 141.26 298.593 153.531 298.593C170.314 298.593 183.307 294.262 192.51 285.6C201.714 276.757 207.489 264.847 209.834 249.869L234.467 251.493C232.121 265.389 227.52 277.57 220.662 288.036C213.805 298.503 204.691 306.714 193.322 312.669C182.134 318.444 168.87 321.331 153.531 321.331ZM264.869 317V173.534H284.9L285.983 209.807L283.817 208.995C285.622 196.724 289.502 187.791 295.457 182.197C301.593 176.422 309.713 173.534 319.819 173.534H333.895V195.19H320.09C312.871 195.19 306.826 196.543 301.954 199.25C297.262 201.776 293.652 205.656 291.126 210.89C288.78 215.943 287.607 222.439 287.607 230.379V317H264.869ZM409.248 320.248C394.992 320.248 383.533 315.466 374.871 305.902C366.389 296.157 362.148 282.803 362.148 265.84V173.534H384.886V259.614C384.886 273.509 387.322 283.795 392.195 290.472C397.248 296.969 404.917 300.217 415.203 300.217C426.572 300.217 435.505 296.608 442.002 289.39C448.498 281.991 451.746 271.885 451.746 259.072V173.534H474.484V317H452.829V281.54L456.348 283.434C453.461 295.164 447.957 304.278 439.836 310.774C431.715 317.09 421.519 320.248 409.248 320.248Z" fill="#CC785C"/>
<path d="M714.642 317V124.81H747.125L808.571 291.555L869.747 124.81H902.23V317H878.95V168.121L824 317H792.871L737.921 168.121V317H714.642ZM946.737 317V124.81H1006.29C1035.88 124.81 1058.62 133.202 1074.5 149.984C1090.56 166.587 1098.59 190.317 1098.59 221.176C1098.59 251.854 1090.74 275.494 1075.04 292.097C1059.34 308.699 1036.97 317 1007.91 317H946.737ZM970.016 294.262H1006.29C1028.85 294.262 1045.81 288.217 1057.18 276.126C1068.55 263.855 1074.23 245.538 1074.23 221.176C1074.23 196.453 1068.55 178.046 1057.18 165.955C1045.81 153.684 1028.85 147.548 1006.29 147.548H970.016V294.262Z" fill="#CC785C"/>
</svg>
