<svg width="48" height="48" viewBox="0 0 48 48" fill="none" xmlns="http://www.w3.org/2000/svg">
<path d="M12.1179 6.6317C15.4795 9.971 21.5557 16.1714 22.0959 17.0146C22.7638 18.0572 22.6136 18.9534 22.2867 19.5737L22.2834 19.58C21.8138 20.4711 21.6869 20.7119 21.1824 21.323C20.6466 21.9719 19.4649 23.0291 19.4649 23.0291C19.4649 23.0291 18.6368 23.8936 17.8428 23.4082C16.6024 22.6499 15.6889 21.4582 14.5987 20.3752C12.8086 18.5969 5.05718 10.9917 4.25321 8.67374C4.00988 7.9722 4.07317 6.61132 5.1526 5.77865C5.39033 5.59526 6.15283 5.22651 6.44776 5.16679C7.17073 5.02039 7.46168 4.96665 8.20588 5.02039C8.96388 5.07514 9.43605 5.10541 10.169 5.39952C10.8775 5.68387 11.2592 5.77865 12.1179 6.6317Z" fill="#2F5E52"/>
<path d="M20.8007 24.356C26.8325 17.9542 29.7698 13.7404 35.4947 7.29517C37.3665 5.18779 39.97 4.54244 42.5554 5.68387C44.2729 6.44213 44.085 9.09308 42.5554 10.6126C40.7425 12.4134 31.9546 20.664 25.7623 27.4838C21.3732 32.3178 18.7016 35.9195 13.3583 41.4169C11.0615 43.7799 8.20588 44.6395 5.43884 43.5021C5.08618 43.3571 2.38555 42.8386 5.43884 39.3317C10.7793 33.1977 15.4425 30.043 20.8007 24.356Z" fill="#2F5E52"/>
<path d="M36.3043 42.7022C32.6684 39.6596 26.6756 33.3505 26.1355 32.5073C25.5954 31.6642 25.5715 30.4221 26.1355 29.7602C26.7934 28.988 26.7833 29.0442 27.2889 28.4317C27.8247 27.7828 28.8156 26.9151 28.8156 26.9151C28.8156 26.9151 29.7391 25.8194 30.5331 26.3048C31.7735 27.0631 32.5915 28.2017 33.6818 29.2847C35.4719 31.063 41.7536 37.0792 43.2233 39.3317C46.5628 44.4499 38.1663 44.2604 36.3043 42.7022Z" fill="#2F5E52"/>
<path d="M12.1179 6.6317C15.4795 9.971 21.5557 16.1714 22.0959 17.0146C22.7638 18.0572 22.6136 18.9534 22.2867 19.5737L22.2834 19.58C21.8138 20.4711 21.6869 20.7119 21.1824 21.323C20.6466 21.9719 19.4649 23.0291 19.4649 23.0291C19.4649 23.0291 18.6368 23.8936 17.8428 23.4082C16.6024 22.6499 15.6889 21.4582 14.5987 20.3752C12.8086 18.5969 5.05718 10.9917 4.25321 8.67374C4.00988 7.9722 4.07317 6.61132 5.1526 5.77865C5.39033 5.59526 6.15283 5.22651 6.44776 5.16679C7.17073 5.02039 7.46168 4.96665 8.20588 5.02039C8.96388 5.07514 9.43605 5.10541 10.169 5.39952C10.8775 5.68387 11.2592 5.77865 12.1179 6.6317Z" stroke="#2F5E52"/>
<path d="M20.8007 24.356C26.8325 17.9542 29.7698 13.7404 35.4947 7.29517C37.3665 5.18779 39.97 4.54244 42.5554 5.68387C44.2729 6.44213 44.085 9.09308 42.5554 10.6126C40.7425 12.4134 31.9546 20.664 25.7623 27.4838C21.3732 32.3178 18.7016 35.9195 13.3583 41.4169C11.0615 43.7799 8.20588 44.6395 5.43884 43.5021C5.08618 43.3571 2.38555 42.8386 5.43884 39.3317C10.7793 33.1977 15.4425 30.043 20.8007 24.356Z" stroke="#2F5E52"/>
<path d="M36.3043 42.7022C32.6684 39.6596 26.6756 33.3505 26.1355 32.5073C25.5954 31.6642 25.5715 30.4221 26.1355 29.7602C26.7934 28.988 26.7833 29.0442 27.2889 28.4317C27.8247 27.7828 28.8156 26.9151 28.8156 26.9151C28.8156 26.9151 29.7391 25.8194 30.5331 26.3048C31.7735 27.0631 32.5915 28.2017 33.6818 29.2847C35.4719 31.063 41.7536 37.0792 43.2233 39.3317C46.5628 44.4499 38.1663 44.2604 36.3043 42.7022Z" stroke="#2F5E52"/>
</svg>
